<?xml version="1.0" encoding="utf-8"?>
<!-- Generator: Adobe Illustrator 18.0.0, SVG Export Plug-In . SVG Version: 6.00 Build 0)  -->
<!DOCTYPE svg PUBLIC "-//W3C//DTD SVG 1.1//EN" "http://www.w3.org/Graphics/SVG/1.1/DTD/svg11.dtd">
<svg version="1.1" id="Layer_1" xmlns="http://www.w3.org/2000/svg" xmlns:xlink="http://www.w3.org/1999/xlink" x="0px" y="0px"
	 viewBox="0 0 54 14" enable-background="new 0 0 54 14" xml:space="preserve">
<path fill-rule="evenodd" clip-rule="evenodd" fill="#363940" d="M7.3,5.9c-2.3,0-4.6,1.6-4.6,3.5c0,0.7,0.3,1.5,1,2
	c0.4,0.3,0.4,0.7-0.1,1.1c-0.5,0.5-1.2,0.9-1.9,0.9c-0.9,0-2-0.8-2-2.2c0-0.8,0.6-2.6,2.8-4.2c2.3-1.7,4.3-2.3,6.6-2.4
	c4.9-3.7,8.8-4.4,11.6-4.4c3.1,0,5.9,1,7.3,1.5c1.3,0.5,6.2,2.4,9.6,3.9c3.6,1.4,6.8,2.3,8.9,2.3c1.7,0,4.2-0.6,4.2-2.6
	c0-0.7-0.3-1.3-0.7-1.6c-0.2-0.2-0.4-0.5-0.4-0.7c0-0.7,0.7-1.9,1.9-1.9c1.4,0,2.1,1.3,2.1,2.3c0,2.7-3.1,4.5-5.2,5.3
	c-3.8,3.9-7.7,5.4-11.4,5.4c-2.7,0-5.4-0.7-8.9-1.9C25.7,11.3,17.5,8,14.1,7C11.1,6.1,9.3,5.9,7.3,5.9L7.3,5.9z M18,1.6
	c-2.5,0-5,1.2-6.1,3c1.4,0,3.6,0.3,7.3,1.6c3.6,1.2,10.3,3.9,12.6,4.7c2.6,0.8,5.1,1.5,7.5,1.5c2.8,0,5.2-0.9,6.5-3.1
	c-2.6,0.3-5-0.1-8.6-1.4c-2.7-1-10.3-4.3-12.9-5.2C22.2,2,20.1,1.6,18,1.6L18,1.6z"/>
</svg>
